<?xml version="1.0" encoding="UTF-8"?>
<svg width="129px" height="41px" viewBox="0 0 129 41" version="1.1" xmlns="http://www.w3.org/2000/svg" xmlns:xlink="http://www.w3.org/1999/xlink">
    <title>Group 6</title>
    <g id="Page-1" stroke="none" stroke-width="1" fill="none" fill-rule="evenodd">
        <g id="Desktop-Copy" transform="translate(-424.000000, -26.000000)">
            <g id="Group-6" transform="translate(424.000000, 26.500000)">
                <g id="Group-3">
                    <path d="M43.5282288,0 L54.4112185,20 L43.5282288,40 L5,40 C2.23857625,40 -4.28272943e-14,37.7614237 -4.40536496e-14,35 L-4.40536496e-14,35 L-4.40536496e-14,5 C-4.43918265e-14,2.23857625 2.23857625,5.07265313e-16 5,0 L5,0 L43.5282288,0 Z M9.29426108,11.2628431 L6.06500722,11.2628431 L6.06500722,28.7950109 L8.8664169,28.7950109 L8.8664169,16.2018058 L17.0757589,28.7950109 L20.3421238,28.7950109 L20.3421238,11.2628431 L17.5954577,11.2628431 L17.5954577,24.4239213 L9.29426108,11.2628431 Z M26.4304427,11.2628431 L23.381898,11.2628431 L23.381898,28.7950109 L26.4304427,28.7950109 L26.4304427,11.2628431 Z M32.674524,11.2628431 L29.4835078,11.2628431 L29.4835078,28.7950109 L32.674524,28.7950109 L32.674524,20.9273496 L40.6359338,20.9273496 L40.6359338,28.7950109 L43.703965,28.7950109 L43.703965,11.2628431 L40.6359338,11.2628431 L40.6359338,18.259109 L32.674524,18.259109 L32.674524,11.2628431 Z" id="Combined-Shape" fill="#646569"></path>
                    <path d="M46.3381391,0 L57.1605059,20 L46.3381391,40 C49.6730921,40 52.7409193,38.175865 54.3336754,35.2458412 L62.6212898,20 L62.6212898,20 L54.3336754,4.75415877 C52.7409193,1.82413497 49.6730921,-6.1262093e-16 46.3381391,0 L46.3381391,0 L46.3381391,0 Z" id="Path-6" fill="#346094"></path>
                </g>
                <path d="M71.178339,11.7353672 L79.0494347,24.0931547 L79.0494347,11.7353672 L81.9186288,11.7353672 L81.9186288,28.7555977 L78.7041504,28.7555977 L70.8481545,16.3124591 L70.8481545,28.7555977 L68.081082,28.7555977 L68.081082,11.7353672 L71.178339,11.7353672 Z M88.1934928,11.7353672 L88.1934928,28.7555977 L85.1986483,28.7555977 L85.1986483,11.7353672 L88.1934928,11.7353672 Z M110.299483,11.7353672 L110.299483,28.7555977 L107.304639,28.7555977 L107.304639,11.7353672 L110.299483,11.7353672 Z M99.4732521,11.7353672 L106.059771,28.7555977 L102.68229,28.7555977 L101.2578,24.2493385 L94.4927374,24.2493385 L92.8192963,28.7555977 L89.7959322,28.7555977 L96.2766915,11.7353672 L99.4732521,11.7353672 Z M119.721395,11.7353672 C124.421402,11.7353672 128.23151,15.5454756 128.23151,20.2454824 C128.23151,24.8600346 124.558691,28.6167541 119.976859,28.7518366 L119.721395,28.7555977 L114.045911,28.7555977 L114.045911,11.7353672 L119.721395,11.7353672 Z M119.582481,14.0581399 L116.992564,14.0581399 L116.992564,26.3438117 L119.582481,26.3438117 C122.620047,26.3438117 125.082481,23.8813778 125.082481,20.8438117 L125.082481,19.5581399 C125.082481,16.5205738 122.620047,14.0581399 119.582481,14.0581399 Z M97.9278517,14.6251321 L95.2874213,21.8564569 L100.278928,21.8564569 L97.9278517,14.6251321 Z" id="Combined-Shape" fill="#646569"></path>
            </g>
        </g>
    </g>
</svg>