<?xml version="1.0" encoding="UTF-8"?>
<svg width="400px" height="600px" viewBox="0 0 400 600" version="1.1" xmlns="http://www.w3.org/2000/svg" xmlns:xlink="http://www.w3.org/1999/xlink">
    <title>figma</title>
    <g id="Components" stroke="none" stroke-width="1" fill="none" fill-rule="evenodd">
        <g id="Style-Tile" transform="translate(-283.000000, -769.000000)">
            <g id="figma" transform="translate(283.000000, 769.000000)">
                <circle id="Oval" fill="#1ABCFE" transform="translate(300.000000, 300.000000) rotate(-360.000000) translate(-300.000000, -300.000000) " cx="300" cy="300" r="100"></circle>
                <path d="M100,400 L200,400 L200,400 L200,500 C200,555.228475 155.228475,600 100,600 C44.771525,600 6.76353751e-15,555.228475 0,500 C-6.76353751e-15,444.771525 44.771525,400 100,400 Z" id="Rectangle" fill="#0ACF83"></path>
                <path d="M100,200 L200,200 L200,200 L200,400 L100,400 C44.771525,400 6.76353751e-15,355.228475 0,300 C-6.76353751e-15,244.771525 44.771525,200 100,200 Z" id="Rectangle" fill="#A259FF"></path>
                <path d="M100,0 L200,0 L200,0 L200,200 L100,200 C44.771525,200 6.76353751e-15,155.228475 0,100 C-6.76353751e-15,44.771525 44.771525,1.01453063e-14 100,0 Z" id="Rectangle-Copy" fill="#F24E1E"></path>
                <path d="M300,9.09494702e-13 L400,9.09494702e-13 L400,9.09494702e-13 L400,200 L300,200 C244.771525,200 200,155.228475 200,100 C200,44.771525 244.771525,9.19640008e-13 300,9.09494702e-13 Z" id="Rectangle-Copy" fill="#FF7262" transform="translate(300.000000, 100.000000) rotate(-180.000000) translate(-300.000000, -100.000000) "></path>
            </g>
        </g>
    </g>
</svg>