<?xml version="1.0" encoding="UTF-8"?>
<svg width="1024px" height="476px" viewBox="0 0 1024 476" version="1.1" xmlns="http://www.w3.org/2000/svg" xmlns:xlink="http://www.w3.org/1999/xlink">
    <title>Group 7</title>
    <defs>
        <linearGradient x1="0%" y1="60.8039856%" x2="98.2162369%" y2="39.5814494%" id="linearGradient-1">
            <stop stop-color="#181623" offset="0%"></stop>
            <stop stop-color="#1A143C" offset="100%"></stop>
        </linearGradient>
    </defs>
    <g id="Page-1" stroke="none" stroke-width="1" fill="none" fill-rule="evenodd">
        <g id="Desktop-Copy-2" transform="translate(0.000000, -142.000000)">
            <g id="Group-7" transform="translate(0.000000, 142.000000)">
                <rect id="Rectangle" fill="url(#linearGradient-1)" x="0" y="0" width="1024" height="476"></rect>
                <g id="Group-10" transform="translate(62.000000, 0.000000)" fill="#FFFFFF">
                    <g id="Group-2" transform="translate(243.000000, 31.000000)" fill-opacity="0.1">
                        <rect id="Rectangle" x="0" y="0" width="4" height="4"></rect>
                        <rect id="Rectangle-Copy-6" x="0" y="12" width="4" height="4"></rect>
                        <rect id="Rectangle-Copy" x="12" y="0" width="4" height="4"></rect>
                        <rect id="Rectangle-Copy-7" x="12" y="12" width="4" height="4"></rect>
                        <rect id="Rectangle-Copy-2" x="24" y="0" width="4" height="4"></rect>
                        <rect id="Rectangle-Copy-8" x="24" y="12" width="4" height="4"></rect>
                        <rect id="Rectangle-Copy-3" x="36" y="0" width="4" height="4"></rect>
                        <rect id="Rectangle-Copy-9" x="36" y="12" width="4" height="4"></rect>
                        <rect id="Rectangle-Copy-4" x="48" y="0" width="4" height="4"></rect>
                        <rect id="Rectangle-Copy-10" x="48" y="12" width="4" height="4"></rect>
                        <rect id="Rectangle-Copy-5" x="60" y="0" width="4" height="4"></rect>
                        <rect id="Rectangle-Copy-11" x="60" y="12" width="4" height="4"></rect>
                        <rect id="Rectangle-Copy-17" x="0" y="24" width="4" height="4"></rect>
                        <rect id="Rectangle-Copy-16" x="12" y="24" width="4" height="4"></rect>
                        <rect id="Rectangle-Copy-15" x="24" y="24" width="4" height="4"></rect>
                        <rect id="Rectangle-Copy-14" x="36" y="24" width="4" height="4"></rect>
                        <rect id="Rectangle-Copy-13" x="48" y="24" width="4" height="4"></rect>
                        <rect id="Rectangle-Copy-12" x="60" y="24" width="4" height="4"></rect>
                        <rect id="Rectangle-Copy-23" x="0" y="36" width="4" height="4"></rect>
                        <rect id="Rectangle-Copy-22" x="12" y="36" width="4" height="4"></rect>
                        <rect id="Rectangle-Copy-21" x="24" y="36" width="4" height="4"></rect>
                        <rect id="Rectangle-Copy-20" x="36" y="36" width="4" height="4"></rect>
                        <rect id="Rectangle-Copy-19" x="48" y="36" width="4" height="4"></rect>
                        <rect id="Rectangle-Copy-18" x="60" y="36" width="4" height="4"></rect>
                        <rect id="Rectangle-Copy-29" x="0" y="48" width="4" height="4"></rect>
                        <rect id="Rectangle-Copy-28" x="12" y="48" width="4" height="4"></rect>
                        <rect id="Rectangle-Copy-27" x="24" y="48" width="4" height="4"></rect>
                        <rect id="Rectangle-Copy-26" x="36" y="48" width="4" height="4"></rect>
                        <rect id="Rectangle-Copy-25" x="48" y="48" width="4" height="4"></rect>
                        <rect id="Rectangle-Copy-24" x="60" y="48" width="4" height="4"></rect>
                        <rect id="Rectangle-Copy-35" x="0" y="60" width="4" height="4"></rect>
                        <rect id="Rectangle-Copy-34" x="12" y="60" width="4" height="4"></rect>
                        <rect id="Rectangle-Copy-33" x="24" y="60" width="4" height="4"></rect>
                        <rect id="Rectangle-Copy-32" x="36" y="60" width="4" height="4"></rect>
                        <rect id="Rectangle-Copy-31" x="48" y="60" width="4" height="4"></rect>
                        <rect id="Rectangle-Copy-30" x="60" y="60" width="4" height="4"></rect>
                    </g>
                    <g id="Group-2" transform="translate(604.000000, 433.000000)" fill-opacity="0.1">
                        <rect id="Rectangle" x="0" y="0" width="4" height="4"></rect>
                        <rect id="Rectangle-Copy-6" x="0" y="12" width="4" height="4"></rect>
                        <rect id="Rectangle-Copy" x="12" y="0" width="4" height="4"></rect>
                        <rect id="Rectangle-Copy-7" x="12" y="12" width="4" height="4"></rect>
                        <rect id="Rectangle-Copy-2" x="24" y="0" width="4" height="4"></rect>
                        <rect id="Rectangle-Copy-8" x="24" y="12" width="4" height="4"></rect>
                        <rect id="Rectangle-Copy-3" x="36" y="0" width="4" height="4"></rect>
                        <rect id="Rectangle-Copy-9" x="36" y="12" width="4" height="4"></rect>
                        <rect id="Rectangle-Copy-4" x="48" y="0" width="4" height="4"></rect>
                        <rect id="Rectangle-Copy-10" x="48" y="12" width="4" height="4"></rect>
                        <rect id="Rectangle-Copy-5" x="60" y="0" width="4" height="4"></rect>
                        <rect id="Rectangle-Copy-11" x="60" y="12" width="4" height="4"></rect>
                        <rect id="Rectangle-Copy-17" x="0" y="24" width="4" height="4"></rect>
                        <rect id="Rectangle-Copy-16" x="12" y="24" width="4" height="4"></rect>
                        <rect id="Rectangle-Copy-15" x="24" y="24" width="4" height="4"></rect>
                        <rect id="Rectangle-Copy-14" x="36" y="24" width="4" height="4"></rect>
                        <rect id="Rectangle-Copy-13" x="48" y="24" width="4" height="4"></rect>
                        <rect id="Rectangle-Copy-12" x="60" y="24" width="4" height="4"></rect>
                        <rect id="Rectangle-Copy-23" x="0" y="36" width="4" height="4"></rect>
                        <rect id="Rectangle-Copy-22" x="12" y="36" width="4" height="4"></rect>
                        <rect id="Rectangle-Copy-21" x="24" y="36" width="4" height="4"></rect>
                        <rect id="Rectangle-Copy-20" x="36" y="36" width="4" height="4"></rect>
                        <rect id="Rectangle-Copy-19" x="48" y="36" width="4" height="4"></rect>
                        <rect id="Rectangle-Copy-18" x="60" y="36" width="4" height="4"></rect>
                    </g>
                    <circle id="Oval" fill-opacity="0.1" cx="53" cy="104" r="53"></circle>
                    <circle id="Oval" fill-opacity="0.1" cx="89.5" cy="137.5" r="36.5"></circle>
                    <circle id="Oval" fill-opacity="0.1" cx="18" cy="192" r="18"></circle>
                    <rect id="Rectangle" fill-opacity="0.1" x="774" y="356" width="57" height="57" rx="8"></rect>
                    <rect id="Rectangle" fill-opacity="0.075" transform="translate(156.500000, 428.529437) rotate(-315.000000) translate(-156.500000, -428.529437) " x="140" y="412.029437" width="33" height="33" rx="8"></rect>
                    <rect id="Rectangle" fill-opacity="0.05" transform="translate(179.500000, 392.922836) rotate(-315.000000) translate(-179.500000, -392.922836) " x="170.5" y="383.922836" width="18" height="18" rx="4"></rect>
                    <rect id="Rectangle-Copy" fill-opacity="0.1" x="859" y="396" width="46" height="46" rx="8"></rect>
                    <rect id="Rectangle-Copy" fill-opacity="0.1" x="848" y="330" width="26" height="26" rx="5"></rect>
                    <rect id="Rectangle-Copy" fill-opacity="0.1" x="782" y="343" width="26" height="26" rx="5"></rect>
                    <g id="Group-5" transform="translate(831.000000, 30.812962)" fill-opacity="0.1">
                        <path d="M22.294492,26.2021109 L31.4916697,41.6263084 C32.9059218,43.9980908 32.1296902,47.0672783 29.7579077,48.4815304 C28.9835485,48.9432672 28.0987502,49.1870384 27.1971777,49.1870384 L8.80282234,49.1870384 C6.04139859,49.1870384 3.80282234,46.9484622 3.80282234,44.1870384 C3.80282234,43.2854659 4.04659357,42.4006675 4.50833033,41.6263084 L13.705508,26.2021109 C15.1197601,23.8303284 18.1889476,23.0540967 20.56073,24.4683489 C21.2735906,24.8934151 21.8694258,25.4892503 22.294492,26.2021109 Z" id="Triangle"></path>
                        <path d="M56.0665002,4.42734315 L62.2439899,14.6336304 C63.1019134,16.0510693 62.6483366,17.8956151 61.2308977,18.7535387 C60.7623705,19.0371209 60.2251543,19.1870384 59.6774896,19.1870384 L47.3225104,19.1870384 C45.6656561,19.1870384 44.3225104,17.8438927 44.3225104,16.1870384 C44.3225104,15.6393737 44.4724279,15.1021576 44.7560101,14.6336304 L50.9334998,4.42734315 C51.7914233,3.00990421 53.6359691,2.55632739 55.053408,3.41425096 C55.4679709,3.66517055 55.8155806,4.01278034 56.0665002,4.42734315 Z" id="Triangle"></path>
                        <path d="M40.7992737,32.4279205 L60.5155881,65.6343446 C61.9254019,68.008768 61.1434314,71.0764983 58.7690081,72.4863121 C57.9965158,72.9449794 57.114713,73.1870384 56.2163144,73.1870384 L16.7836856,73.1870384 C14.0222619,73.1870384 11.7836856,70.9484622 11.7836856,68.1870384 C11.7836856,67.2886398 12.0257446,66.4068369 12.4844119,65.6343446 L32.2007263,32.4279205 C33.6105401,30.0534972 36.6782705,29.2715267 39.0526938,30.6813405 C39.7717923,31.1083053 40.372309,31.708822 40.7992737,32.4279205 Z" id="Triangle-Copy"></path>
                    </g>
                    <path d="M179.166296,452.844338 L156.858633,476 L156.858633,476 L212.99669,476 L190.689027,452.844338 C187.62364,449.662424 182.559201,449.56796 179.377287,452.633348 C179.305651,452.70236 179.235308,452.772702 179.166296,452.844338 Z" id="Path-16" fill-opacity="0.075"></path>
                    <path d="M621,0 L673,0 C673,14.3594035 661.359403,26 647,26 C632.640597,26 621,14.3594035 621,0 L621,0 L621,0 Z" id="Rectangle" fill-opacity="0.1"></path>
                    <path d="M660,0 L687,0 L687,0.5 C687,7.95584412 680.955844,14 673.5,14 C666.044156,14 660,7.95584412 660,0.5 L660,0 L660,0 Z" id="Rectangle" fill-opacity="0.1"></path>
                </g>
            </g>
        </g>
    </g>
</svg>