<?xml version="1.0" encoding="UTF-8"?>
<svg width="56px" height="55px" viewBox="0 0 56 55" version="1.1" xmlns="http://www.w3.org/2000/svg" xmlns:xlink="http://www.w3.org/1999/xlink">
    <!-- Generator: Sketch 55.2 (78181) - https://sketchapp.com -->
    <title>Combined Shape</title>
    <desc>Created with Sketch.</desc>
    <g id="Desktop" stroke="none" stroke-width="1" fill="none" fill-rule="evenodd">
        <g id="Artboard" transform="translate(-253.000000, -185.000000)" fill="#FFFFFF" stroke="#FFFFFF" stroke-width="2">
            <path d="M277.5,205.452991 C277.367506,205.382558 277.241922,205.29662 277.125911,205.195773 L275.478896,203.764045 L266.34772,213.556032 C265.594405,214.363863 264.328847,214.408058 263.521016,213.654743 C262.713185,212.901429 262.66899,211.63587 263.422305,210.828039 L272.458217,201.138209 L268.069396,197.323065 C267.235767,196.598402 267.147432,195.335157 267.872095,194.501528 C268.596758,193.667899 269.860003,193.579564 270.693632,194.304227 L279.546607,202 L282.476391,202 L291.329365,194.304227 C292.162995,193.579564 293.42624,193.667899 294.150903,194.501528 C294.875565,195.335157 294.787231,196.598402 293.953602,197.323065 L289.56478,201.138209 L298.600693,210.828039 C299.354007,211.63587 299.309813,212.901429 298.501982,213.654743 C297.694151,214.408058 296.428592,214.363863 295.675278,213.556032 L286.544102,203.764045 L284.897087,205.195773 C284.803849,205.276824 284.704365,205.348299 284.6,205.409848 L284.6,205.69 L277.5,205.69 L277.5,205.452991 Z M282.476391,202 L282.857601,202 L282.857601,203 L282.131105,202.312829 C282.175998,202.265367 282.223289,202.220019 282.272851,202.176935 L282.476391,202 Z M262.435063,237.95885 L280.03672,222.286105 C280.586115,221.796917 281.296097,221.526636 282.031719,221.526636 L302,221.526636 C305.313708,221.526636 308,218.840345 308,215.526636 L308,192 C308,188.686292 305.313708,186 302,186 L260,186 C256.686292,186 254,188.686292 254,192 L254,216.118201 C254,219.105197 256.421439,221.526636 259.408435,221.526636 L265.153474,221.526636 C265.293236,221.526636 265.432311,221.546169 265.566666,221.584668 C266.363043,221.812867 266.823642,222.64345 266.595443,223.439828 L262.435063,237.95885 Z" id="Combined-Shape"></path>
        </g>
    </g>
</svg>