<?xml version="1.0" encoding="UTF-8"?>
<svg width="384px" height="513px" viewBox="0 0 384 513" version="1.1" xmlns="http://www.w3.org/2000/svg" xmlns:xlink="http://www.w3.org/1999/xlink">
    <title>file-powerpoint</title>
    <g id="Page-1" stroke="none" stroke-width="1" fill="none" fill-rule="evenodd">
        <g id="Artboard" transform="translate(-599.000000, -156.000000)" fill="#D04423" fill-rule="nonzero">
            <g id="file-powerpoint" transform="translate(599.000000, 156.000000)">
                <path d="M369.9,98.9 L286,15 C277,6 264.8,0.9 252.1,0.9 L48,0.9 C21.5,1 0,22.5 0,49 L0,465 C0,491.5 21.5,513 48,513 L336,513 C362.5,513 384,491.5 384,465 L384,132.9 C384,120.2 378.9,107.9 369.9,98.9 Z M347.3,121.6 C349.4,123.7 350.8,126.2 351.5,129 L256,129 L256,33.5 C258.8,34.2 261.3,35.6 263.4,37.7 L347.3,121.6 Z M336,481 L48,481 C39.2,481 32,473.8 32,465 L32,49 C32,40.2 39.2,33 48,33 L224,33 L224,137 C224,150.3 234.7,161 248,161 L352,161 L352,465 C352,473.8 344.8,481 336,481 Z M204.3,209 L140,209 C133.4,209 128,214.4 128,221 L128,405 C128,411.6 133.4,417 140,417 L148,417 C154.6,417 160,411.6 160,405 L160,344.6 L204.3,344.6 C243,344.6 272,317.3 272,275.6 C272,237 248.2,209 204.3,209 Z M230.3,306.7 C222.8,314.3 212.5,318.1 199.3,318.1 L160,318.1 L160,234 L199.7,234 C212.6,234 222.8,237.7 230.3,245.1 C245.6,260.2 245.3,291.6 230.3,306.7 L230.3,306.7 Z" id="Shape"></path>
            </g>
        </g>
    </g>
</svg>