<?xml version="1.0" encoding="UTF-8"?>
<svg width="384px" height="513px" viewBox="0 0 384 513" version="1.1" xmlns="http://www.w3.org/2000/svg" xmlns:xlink="http://www.w3.org/1999/xlink">
    <title>file-word</title>
    <g id="Page-1" stroke="none" stroke-width="1" fill="none" fill-rule="evenodd">
        <g id="Artboard" transform="translate(-92.000000, -156.000000)" fill="#2C5897" fill-rule="nonzero">
            <g id="file-word" transform="translate(92.000000, 156.000000)">
                <path d="M369.9,98.9 L286,15 C277,6 264.8,0.9 252.1,0.9 L48,0.9 C21.5,1 0,22.5 0,49 L0,465 C0,491.5 21.5,513 48,513 L336,513 C362.5,513 384,491.5 384,465 L384,132.9 C384,120.2 378.9,107.9 369.9,98.9 Z M347.3,121.6 C349.4,123.7 350.8,126.2 351.5,129 L256,129 L256,33.5 C258.8,34.2 261.3,35.6 263.4,37.7 L347.3,121.6 Z M336,481 L48,481 C39.2,481 32,473.8 32,465 L32,49 C32,40.2 39.2,33 48,33 L224,33 L224,137 C224,150.3 234.7,161 248,161 L352,161 L352,465 C352,473.8 344.8,481 336,481 Z M282.4,234.5 C275.6,267.3 249.9,374.2 249,384.8 C243.2,355.7 248.3,386.4 207.2,233.9 C205.8,228.7 201,225 195.6,225 L189.2,225 C183.8,225 179,228.6 177.6,233.9 C139.3,376.2 140.2,374.5 138.2,388.6 C134.1,364.7 140.3,385.7 103.8,234.2 C102.5,228.8 97.7,225 92.1,225 L84.9,225 C77.1,225 71.4,232.3 73.3,239.9 C82.8,277.9 107.8,377.3 115.5,407.9 C116.8,413.2 121.6,417 127.1,417 L144.1,417 C149.5,417 154.3,413.3 155.7,408.1 C189.9,280.4 189.2,284.7 192.4,265.2 C198.9,296.3 192.6,272.2 229.1,408.1 C230.5,413.3 235.3,417 240.7,417 L254.7,417 C260.2,417 268.4,413.3 269.8,408 L312.6,240 C314.5,232.4 308.8,225 301,225 L294.2,225 C288.5,225 283.6,229 282.4,234.5 L282.4,234.5 Z" id="Shape"></path>
            </g>
        </g>
    </g>
</svg>