<?xml version="1.0" encoding="UTF-8"?>
<svg width="384px" height="513px" viewBox="0 0 384 513" version="1.1" xmlns="http://www.w3.org/2000/svg" xmlns:xlink="http://www.w3.org/1999/xlink">
    <title>file-pdf</title>
    <g id="Page-1" stroke="none" stroke-width="1" fill="none" fill-rule="evenodd">
        <g id="Artboard" transform="translate(-1090.000000, -156.000000)" fill="#F40F02" fill-rule="nonzero">
            <g id="file-pdf" transform="translate(1090.000000, 156.000000)">
                <path d="M369.9,98.9 L286,15 C277,6 264.8,0.9 252.1,0.9 L48,0.9 C21.5,1 0,22.5 0,49 L0,465 C0,491.5 21.5,513 48,513 L336,513 C362.5,513 384,491.5 384,465 L384,132.9 C384,120.2 378.9,107.9 369.9,98.9 Z M347.3,121.6 C349.4,123.7 350.8,126.2 351.5,129 L256,129 L256,33.5 C258.8,34.2 261.3,35.6 263.4,37.7 L347.3,121.6 Z M336,481 L48,481 C39.2,481 32,473.8 32,465 L32,49 C32,40.2 39.2,33 48,33 L224,33 L224,137 C224,150.3 234.7,161 248,161 L352,161 L352,465 C352,473.8 344.8,481 336,481 Z M314,309.8 C300.5,296.5 259,300.6 240.3,303.1 C219.1,290.3 205.1,272.7 195.2,246.5 C199.5,228.5 207.2,199.3 201.6,181.6 C197.2,153.5 161.9,156.9 157,174.8 C152,193.1 156.7,219.2 165.4,252.6 C153.5,281 135.7,319.5 123.3,341.2 C102.5,351.9 69.2,370.5 64.5,393.6 C61,410.4 87.4,433 117.6,400 C126.7,390.1 136.9,375.2 148.9,354.5 C175.6,345.7 205,334.7 230.9,330.5 C252.8,342.5 278.5,350.4 295.5,350.4 C323.2,350.5 324.4,320.2 314,309.8 L314,309.8 Z M84.8,398.8 C90.7,382.9 113.4,364.4 120.3,358 C98.2,393.3 84.8,399.5 84.8,398.8 Z M180,176.5 C188.7,176.5 187.8,214 182.1,224.1 C176.9,207.8 177.1,176.5 180,176.5 Z M151.6,335.8 C162.9,316 172.6,292.6 180.4,272.1 C190.1,289.8 202.5,303.8 215.5,313.6 C191.2,318.3 170.1,328.7 151.6,335.8 Z M305,329.9 C305,329.9 299.2,336.9 261.5,320.8 C302.5,317.8 309.2,327.2 305,329.9 Z" id="Shape"></path>
            </g>
        </g>
    </g>
</svg>