<?xml version="1.0" encoding="UTF-8"?>
<svg width="384px" height="513px" viewBox="0 0 384 513" version="1.1" xmlns="http://www.w3.org/2000/svg" xmlns:xlink="http://www.w3.org/1999/xlink">
    <title>file-excel</title>
    <g id="Page-1" stroke="none" stroke-width="1" fill="none" fill-rule="evenodd">
        <g id="Artboard" transform="translate(-1581.000000, -156.000000)" fill="#1D6F42" fill-rule="nonzero">
            <g id="file-excel" transform="translate(1581.000000, 156.000000)">
                <path d="M369.9,98.9 L286,15 C277,6 264.8,0.9 252.1,0.9 L48,0.9 C21.5,1 0,22.5 0,49 L0,465 C0,491.5 21.5,513 48,513 L336,513 C362.5,513 384,491.5 384,465 L384,132.9 C384,120.2 378.9,107.9 369.9,98.9 Z M347.3,121.6 C349.4,123.7 350.8,126.2 351.5,129 L256,129 L256,33.5 C258.8,34.2 261.3,35.6 263.4,37.7 L347.3,121.6 Z M336,481 L48,481 C39.2,481 32,473.8 32,465 L32,49 C32,40.2 39.2,33 48,33 L224,33 L224,137 C224,150.3 234.7,161 248,161 L352,161 L352,465 C352,473.8 344.8,481 336,481 Z M211.7,309 L262.2,227.2 C267,219.2 261.3,209 251.9,209 L247.8,209 C243.7,209 239.9,211.1 237.7,214.5 C206.7,263 201.3,268 192,289 C174.8,256.8 183.6,273 146.2,214.5 C144,211.1 140.2,209 136.1,209 L132,209 C122.6,209 116.9,219.3 121.8,227.2 L173,309 L113.9,398.5 C108.8,406.5 114.5,417 124,417 L127.5,417 C131.6,417 135.4,414.9 137.6,411.5 C174.8,353.5 182.9,349 192,329 C223.5,385.7 236.3,396.2 246.4,411.6 C248.6,415 252.4,417 256.4,417 L260,417 C269.5,417 275.2,406.6 270.1,398.6 L211.7,309 Z" id="Shape"></path>
            </g>
        </g>
    </g>
</svg>