<?xml version="1.0" encoding="UTF-8"?>
<svg width="3232px" height="1024px" viewBox="0 0 3232 1024" version="1.1" xmlns="http://www.w3.org/2000/svg" xmlns:xlink="http://www.w3.org/1999/xlink">
    <title>Desktop HD Copy</title>
    <g id="Desktop-HD-Copy" stroke="none" stroke-width="1" fill="none" fill-rule="evenodd">
        <path d="M0,553 C235.073456,639.484029 504.406789,676.150696 808,663 C1263.38982,643.273956 1212,483 1616,483 C2020,483 2071.38982,647.726044 2424,663 C2659.07346,673.182637 2928.40679,636.515971 3232,553 L3232,1024 L0,1024 L0,553 Z" id="Rectangle" fill="#F5F6FA"></path>
        <path d="M2471,464.749746 C2473.01506,444.988247 2481.18173,435.071665 2495.5,435 C2509.81827,434.928849 2518.31827,444.762312 2521,464.500386 L2521,490.000386 C2517.75308,492.322648 2514.28376,493.02621 2510.59204,492.111074 C2505.05447,490.738369 2482.90543,492.111074 2480.235,492.111074 C2477.19907,492.111074 2474.12074,491.407511 2471,490.000386 L2471,464.749746 Z" id="Rectangle" fill="#77723F"></path>
        <ellipse id="Oval" fill="#C4AF87" cx="2496" cy="464.500386" rx="23" ry="29.5"></ellipse>
        <path d="M2496.14332,449.767848 C2504.95029,449.767848 2512.12553,450.845361 2517.66906,453.000386 C2514.50067,441.000386 2507.22861,435.000386 2495.85289,435.000386 C2484.78821,435.000386 2477.3936,441.353547 2473.66906,454.059869 C2479.84494,451.198521 2487.33636,449.767848 2496.14332,449.767848 Z" id="Oval" fill="#77723F"></path>
        <rect id="Rectangle" fill="#C4AF87" x="2488" y="492.000386" width="15" height="17"></rect>
        <rect id="Rectangle" fill="#EBDAB9" transform="translate(1301.977638, 538.134392) rotate(-7.000000) translate(-1301.977638, -538.134392) " x="1294.97764" y="529.634392" width="14" height="17"></rect>
        <path d="M1222.61408,687.796748 C1236.29616,661.056387 1255.96323,665.52703 1274.91856,663.038832 C1293.87389,660.550634 1319.96947,651.526866 1319.96947,656.44227 C1319.96947,664.260292 1325.53521,672.930742 1310.79741,682.952878 C1300.9722,689.634302 1287.19355,692.048918 1269.46145,690.196727 C1251.41944,688.544755 1241.1,692.17498 1238.50315,701.087402 C1235.9063,709.999824 1234.51873,726.304023 1234.34046,750 L1222.61408,750 C1216.46197,720.554907 1216.46197,699.82049 1222.61408,687.796748 Z" id="Rectangle-Copy-7" fill="#917A41"></path>
        <path d="M1222.65486,687.861432 C1236.33126,661.068332 1255.99018,665.547792 1274.93766,663.054687 C1293.88513,660.561581 1319.9699,651.520016 1319.9699,656.445115 C1319.9699,664.278556 1325.53333,672.966107 1310.80163,683.008009 C1300.9805,689.702611 1287.20756,692.121989 1269.48281,690.266145 C1246.90481,687.825382 1234.31792,691.07 1231.72215,700 C1229.12637,708.93 1224.00523,723.93 1216.35872,745 L1204,745 C1210.28701,718.955077 1216.50529,699.908888 1222.65486,687.861432 Z" id="Rectangle-Copy-7" fill="#917A41"></path>
        <path d="M1286.91893,549.330991 C1293.55541,537.525673 1313.11538,535.64482 1318.20067,544.685921 C1320.49346,548.762262 1322.22495,567.075856 1321.9762,600.999964 C1321.89683,611.824699 1321.00578,630.54381 1319.30307,657.157296 L1280.61433,663 C1269.53811,660.585306 1264,646.585306 1264,621 C1264,601.3988 1273.53221,593.347729 1278.57253,581.598592 C1283.40085,570.343631 1283.67198,555.106849 1286.91893,549.330991 Z" id="Rectangle" fill="#BE6666"></path>
        <g id="Group-5" transform="translate(1301.767864, 503.396473) rotate(-11.000000) translate(-1301.767864, -503.396473) translate(1273.267864, 472.396473)">
            <ellipse id="Oval" fill="#EBDAB9" cx="24.5" cy="34.5" rx="22.5" ry="27.5"></ellipse>
            <path d="M28.0749967,28.112145 C41.2977428,28.112145 52.0168964,50.6410614 52.0168964,35.3532121 C52.0168964,20.0653627 41.2977428,7.67211207 28.0749967,7.67211207 C14.8522506,7.67211207 8.18480294,15.1703421 5.41326572,26.4277169 C2.6417285,37.6850917 14.8522506,28.112145 28.0749967,28.112145 Z" id="Oval" fill="#876F30" transform="translate(28.516896, 24.172112) rotate(22.000000) translate(-28.516896, -24.172112) "></path>
        </g>
        <path d="M1201.21444,745 C1202.87782,745 1205.48908,746.473278 1208.24666,746.473278 C1211.16431,746.473278 1214.22423,745 1215.68982,745 C1217.23488,745 1216.81323,748.913048 1218.98255,750.372112 C1221.43635,752.022518 1226.13934,751.612591 1230.92841,751.612591 C1237.43879,751.612591 1240.22195,765 1235.96982,765 C1231.71769,765 1203.90115,765 1201.21444,765 C1198.52773,765 1195.57642,745 1201.21444,745 Z" id="Rectangle-Copy-13" fill="#646464" transform="translate(1218.000000, 755.000000) scale(-1, 1) translate(-1218.000000, -755.000000) "></path>
        <path d="M1184.21444,741 C1185.87782,741 1188.48908,742.399614 1191.24666,742.399614 C1194.16431,742.399614 1197.22423,741 1198.68982,741 C1200.23488,741 1199.81323,744.717396 1201.98255,746.103507 C1204.43635,747.671392 1209.13934,747.281961 1213.92841,747.281961 C1220.43879,747.281961 1223.22195,760 1218.96982,760 C1214.71769,760 1186.90115,760 1184.21444,760 C1181.52773,760 1178.57642,741 1184.21444,741 Z" id="Rectangle-Copy-13" fill="#646464" transform="translate(1201.000000, 750.500000) scale(-1, 1) translate(-1201.000000, -750.500000) "></path>
        <path d="M1298,704 L1298,739 L1300,739 L1300,754.116 L1322.66076,759.681845 C1323.65505,760.015248 1324.09569,760.257474 1323.98271,760.408523 C1325.75734,761.175401 1327,762.942582 1327,765 C1327,767.761424 1324.76142,770 1322,770 C1319.23858,770 1317,767.761424 1317,765 C1317,763.004547 1318.16893,761.282113 1319.85939,760.480098 C1317.61958,760.329602 1314.55166,760.032537 1310.65678,759.590035 C1311.48966,760.482207 1312,761.681505 1312,763 C1312,765.761424 1309.76142,768 1307,768 C1304.23858,768 1302,765.761424 1302,763 C1302,761.254675 1302.89425,759.718214 1304.24956,758.823805 C1302.75918,758.63862 1301.18484,758.438448 1299.52775,758.223722 L1296.86699,758.223143 C1294.87214,762.625657 1293.31596,765.685381 1292.19845,767.402314 L1292.1446,767.481995 C1293.83291,768.284826 1295,770.006118 1295,772 C1295,774.761424 1292.76142,777 1290,777 C1287.23858,777 1285,774.761424 1285,772 C1285,769.470144 1286.87887,767.379122 1289.31734,767.046214 L1292.01,758.223 L1291.32094,758.223722 L1270.94373,760.391869 C1272.73963,761.150317 1274,762.927971 1274,765 C1274,767.761424 1271.76142,770 1269,770 C1266.23858,770 1264,767.761424 1264,765 C1264,762.324765 1266.10102,760.140249 1268.74301,760.00649 L1268,759.681845 L1291,754.078 L1291,739 L1293,739 L1293,704 L1298,704 Z M1348.57143,539 C1349.52529,539 1350.29855,539.77326 1350.29855,540.727125 C1350.29855,540.87477 1350.27962,541.021805 1350.24224,541.16464 C1349.12837,545.418402 1348.57143,549.672164 1348.57143,553.925926 C1348.57143,558.286416 1349.44928,562.94088 1351.20499,567.889316 C1351.22969,567.958919 1351.24922,568.0291 1351.26379,568.09944 C1352.50811,568.275253 1353.75406,568.692182 1355,569.348912 L1355,577.876385 C1352.03709,597.39252 1349.41283,611.996741 1347.12723,621.689049 C1346.09871,626.050587 1345.40371,629.273987 1344.94875,632.39034 L1344.86093,633.012488 C1344.78282,633.585656 1344.71267,634.157519 1344.64989,634.734554 L1344.59786,635.230572 C1344.30478,638.133164 1344.19179,641.211293 1344.1855,645.274371 L1344.18546,645.980698 C1344.19194,650.755883 1344.33231,656.877942 1344.49703,665.555096 C1344.63876,673.020613 1344.51166,679.550195 1344.11573,685.14384 C1343.74966,690.315725 1342.69144,696.160855 1340.94106,702.67923 L1340.69808,703.572273 C1294.81122,703.700552 1267.25185,704.079473 1258.01995,704.709035 C1250.64446,705.212 1249.05684,707.247441 1247.83282,709.04026 L1247.68439,709.258456 C1246.67749,710.739524 1245.77015,712 1241.78476,712 C1233.95985,712 1233.03108,707.894062 1233.0008,702.231992 L1233.00024,701.74986 C1233.00156,701.264137 1233.00809,700.767815 1233.0162,700.262431 L1233.02472,699.754083 C1233.02764,699.583666 1233.03061,699.412298 1233.03348,699.240037 L1233.04171,698.720634 C1233.04682,698.372656 1233.05104,698.021334 1233.05328,697.667125 L1233.05503,697.133703 C1233.05503,691.719469 1237.114,688.56077 1245.23193,687.657604 L1329.516,687.657 L1325.44366,661.798463 L1325.66621,660.784611 C1323.81222,659.896144 1322.73441,657.827039 1323.17995,655.726843 C1323.1802,655.725664 1323.18045,655.724485 1323.18071,655.723307 L1326.26122,641.258862 C1326.72487,639.081803 1328.66858,637.599971 1330.81477,637.643031 C1330.96564,636.974579 1331.11523,636.313848 1331.26333,635.660811 C1329.30298,634.822335 1328.14315,632.690142 1328.60249,630.524904 C1328.60274,630.523725 1328.60299,630.522547 1328.60324,630.521368 L1333.10709,609.373695 C1333.60354,607.04259 1335.79692,605.508581 1338.11881,605.790202 C1338.25177,605.157487 1338.38553,604.514008 1338.51991,603.860883 C1336.45947,603.102123 1335.1941,600.941133 1335.6258,598.715916 C1335.62601,598.714827 1335.62622,598.713737 1335.62643,598.712647 L1339.75975,577.489984 C1340.17055,575.380698 1341.97201,573.895221 1344.02764,573.800108 C1344.27143,572.342504 1344.51661,570.858332 1344.76342,569.348912 C1345.48159,568.970372 1346.19975,568.671503 1346.91791,568.452305 C1346.7896,568.249227 1346.68309,568.029941 1346.60092,567.797046 C1344.86697,562.883011 1344,558.259304 1344,553.925926 C1344,549.704994 1344.54837,545.484061 1345.64512,541.263129 C1345.9914,539.930402 1347.19445,539 1348.57143,539 Z" id="Combined-Shape" fill="#3F3F3F"></path>
        <rect id="Rectangle-Copy-3" fill="#D8D8D8" x="880" y="629" width="2" height="140"></rect>
        <rect id="Rectangle-Copy-5" fill="#D8D8D8" x="1249" y="629" width="2" height="140"></rect>
        <polygon id="Rectangle" fill="#E8E8E8" transform="translate(1046.500000, 636.500000) scale(1, -1) translate(-1046.500000, -636.500000) " points="842 629 1213.4039 629 1251 644 879.569216 644"></polygon>
        <g id="Group-2" transform="translate(1585.000000, 443.000000)">
            <path d="M39.7112725,103.428244 C39.7112725,107.733241 38.9007383,114.715193 61.2310584,116.05127 C76.1179384,116.941988 91.4053216,116.567646 107.093208,114.928244 C107.100772,116.735755 107.256291,117.987752 107.559767,118.684235 C107.863243,119.380719 108.61455,120.209909 109.813688,121.171806 C79.3812187,128.314214 56.4433228,130.462675 41,127.61719 C17.8350158,123.348963 17,109.597739 17,104.448022 C17,99.2983059 19.0721425,94 26.9429151,94 C34.8136876,94 39.7112725,99.1232461 39.7112725,103.428244 Z" id="Rectangle" fill="#FBFBFB"></path>
            <ellipse id="Oval" fill="#6B5239" transform="translate(113.000000, 117.000000) rotate(80.000000) translate(-113.000000, -117.000000) " cx="113" cy="117" rx="5" ry="7"></ellipse>
            <polygon id="Rectangle" fill="#3F6E93" points="25 254 53 254 44.8771601 324.843377 32.8178967 324.843377"></polygon>
            <polygon id="Rectangle-Copy-12" fill="#3F6E93" points="51 254 79 254 73.9899669 323.141533 61.9139201 323.141533"></polygon>
            <path d="M35.0278527,61 C46.8814721,61 56.4907293,47.3446849 56.4907293,30.5 C56.4907293,13.6553151 46.8814721,0 35.0278527,0 C23.1742332,0 8.78187083,10.9843271 8.78187083,27.829012 C8.78187083,34.9867681 10.2366035,46.3140588 13.141672,51.5170434 C17.073238,58.5584877 28.2111524,61 35.0278527,61 Z" id="Oval" fill="#6B5239"></path>
            <path d="M33.5,28.2414907 C43.5156607,24.2342065 60,24.989122 60,17.1904726 C60,9.39182325 49.2118199,-1.77635684e-14 36.5092707,-1.77635684e-14 C23.8067214,-1.77635684e-14 16.1855574,5.4836966 11.5,14.3910118 C6.81444257,23.2983269 9.95047344,47.4587592 11.5443135,47.4587592 C14.5362139,47.4587592 10.4826297,37.4507827 33.5,28.2414907 Z" id="Oval" fill="#49380B"></path>
            <path d="M11.5,71 C15.8333333,67.1198012 18,62.7864678 18,58 C18,53.2135322 15.8333333,48.8801988 11.5,45 C7.16666667,48.8801988 5,53.2135322 5,58 C5,62.7864678 7.16666667,67.1198012 11.5,71 Z" id="Oval-Copy-4" fill="#49380B" transform="translate(11.500000, 58.000000) rotate(-4.000000) translate(-11.500000, -58.000000) "></path>
            <rect id="Rectangle" fill="#6B5239" x="27" y="56" width="14" height="14"></rect>
            <path d="M11.5822804,81.4103135 C22.4346192,50.1983024 46.6579806,61.0874913 61.8284557,82.8320633 C66.2912408,89.2287878 68.9177466,97.3877405 70.484986,106.341882 C74.2453093,127.825816 71.9076688,153.887479 74.204485,171.169733 C80.4605876,218.243394 103.733039,245.83915 100.734668,259.207157 C93.897724,289.689151 61.114063,265.854073 42.4512108,259.207157 C23.7883585,252.560241 14.9185006,302.318372 5.12550622,245.913324 C-4.66748813,189.508277 0.729941664,112.622325 11.5822804,81.4103135 Z" id="Rectangle" fill="#FBFBFB"></path>
            <path d="M13.5,96 C17.8333333,92.1198012 20,87.7864678 20,83 C20,78.2135322 17.8333333,73.8801988 13.5,70 C9.16666667,73.8801988 7,78.2135322 7,83 C7,87.7864678 9.16666667,92.1198012 13.5,96 Z" id="Oval-Copy-5" fill="#49380B" transform="translate(13.500000, 83.000000) rotate(-4.000000) translate(-13.500000, -83.000000) "></path>
            <path d="M61.8126324,320 C63.2680935,320 65.552945,321.252286 67.9658256,321.252286 C70.518771,321.252286 73.1962055,320 74.4785953,320 C75.8305173,320 75.4615766,323.326091 77.3597303,324.566295 C79.5068078,325.96914 83.6219217,325.620702 87.8123595,325.620702 C93.5089418,325.620702 95.944204,337 92.2235893,337 C88.5029747,337 64.1635033,337 61.8126324,337 C59.4617615,337 56.879365,320 61.8126324,320 Z" id="Rectangle" fill="#646464"></path>
            <path d="M32.8126324,322 C34.2680935,322 36.552945,323.252286 38.9658256,323.252286 C41.518771,323.252286 44.1962055,322 45.4785953,322 C46.8305173,322 46.4615766,325.326091 48.3597303,326.566295 C50.5068078,327.96914 54.6219217,327.620702 58.8123595,327.620702 C64.5089418,327.620702 66.944204,339 63.2235893,339 C59.5029747,339 35.1635033,339 32.8126324,339 C30.4617615,339 27.879365,322 32.8126324,322 Z" id="Rectangle-Copy-13" fill="#646464"></path>
            <path d="M150.830461,92.5 C151.520817,92.5 152.145817,92.779822 152.598228,93.232233 C153.050639,93.6846441 153.330461,94.3096441 153.330461,95 C153.330461,95.4350673 153.216923,95.8626031 153.001069,96.2403473 L153.001069,96.2403473 L136.42964,125.240347 C136.207087,125.629816 135.88872,125.944729 135.513849,126.162275 C135.138979,126.379821 134.707603,126.5 134.259032,126.5 L134.259032,126.5 L112.169539,126.5 C111.479183,126.5 110.854183,126.220178 110.401772,125.767767 C109.949361,125.315356 109.669539,124.690356 109.669539,124 C109.669539,123.564933 109.783077,123.137397 109.998931,122.759653 L109.998931,122.759653 L126.57036,93.7596527 C126.792913,93.3701839 127.11128,93.0552707 127.486151,92.8377248 C127.861021,92.6201788 128.292397,92.5 128.740968,92.5 L128.740968,92.5 Z" id="Rectangle" stroke="#656565" fill="#404040" transform="translate(131.500000, 109.500000) rotate(9.000000) translate(-131.500000, -109.500000) "></path>
            <path d="M45.8975849,119 C45.8975849,123.304998 45.0870506,130.286949 67.4173707,131.623026 C82.3042508,132.513744 97.6986,125.97722 113.600418,112.013456 L120.347329,118.246049 C87.7241218,144.137085 63.6908568,155.659861 48.2475339,152.814376 C25.0825497,148.546148 23.1863124,125.169495 23.1863124,120.019779 C23.1863124,114.870062 25.2584549,109.571756 33.1292275,109.571756 C41,109.571756 45.8975849,114.695002 45.8975849,119 Z" id="Rectangle" fill="#F0F0F0"></path>
            <path d="M122.5,91.5 L122.5,118.821613 C122.287469,119.173532 122.140159,119.49427 122,119.49427 C121.859841,119.49427 121.712531,119.173532 121.5,118.821613 L121.5,118.821613 L121.5,91.5 L122.5,91.5 Z" id="Rectangle" stroke="#979797" fill="#D8D8D8" transform="translate(122.000000, 105.497135) rotate(-44.000000) translate(-122.000000, -105.497135) "></path>
            <ellipse id="Oval" fill="#6B5239" transform="translate(121.000000, 111.500000) rotate(49.000000) translate(-121.000000, -111.500000) " cx="121" cy="111.5" rx="7" ry="9.5"></ellipse>
            <path d="M28.853886,185.014069 C32.2973497,183.762963 35.3565091,183.278382 38.0313641,183.560327 C42.0436467,183.983244 41.4696924,186.427579 45.8791978,186.808633 C48.818868,187.062669 51.8104307,186.464481 54.853886,185.014069 L54.853886,204.014069 C54.853886,211.193771 49.0335878,217.014069 41.853886,217.014069 C34.6741843,217.014069 28.853886,211.193771 28.853886,204.014069 L28.853886,185.014069 L28.853886,185.014069 Z" id="Rectangle" fill="#F0F0F0" transform="translate(41.853886, 200.248309) rotate(-6.000000) translate(-41.853886, -200.248309) "></path>
        </g>
        <rect id="Rectangle" fill="#7F7F7F" x="222" y="623" width="205" height="161"></rect>
        <path d="M387,571 L382,571 L382,552 L361,552 L361,555 L339,555 L339,593 L415,593 L415,623 L317,623 L317,555 L339,530 L361,530 L361,533 L386.423,533 L388.015,534.592 L398.606602,524 L402.849242,528.242641 L392.257,538.834 L394,540.577 L394,552 L387,552 L387,571 Z" id="Combined-Shape" fill="#D8D8D8"></path>
        <circle id="Oval" fill="#515151" cx="353" cy="609" r="5"></circle>
        <circle id="Oval-Copy-3" fill="#515151" cx="351" cy="542" r="5"></circle>
        <circle id="Oval-Copy" fill="#515151" cx="378" cy="609" r="5"></circle>
        <circle id="Oval-Copy-2" fill="#515151" cx="400" cy="609" r="5"></circle>
        <rect id="Rectangle" stroke="#979797" fill="#D8D8D8" x="366.5" y="591.5" width="36" height="1"></rect>
        <g id="Group" transform="translate(243.000000, 587.000000)" fill="#D8D8D8">
            <path d="M0.5,1 L4.5,1 L4.5,27 C4.5,28.1045695 3.6045695,29 2.5,29 C1.3954305,29 0.5,28.1045695 0.5,27 L0.5,1 L0.5,1 Z" id="Rectangle"></path>
            <rect id="Rectangle" stroke="#979797" x="0.5" y="0.5" width="4" height="1" rx="0.5"></rect>
        </g>
        <g id="Group-4" transform="translate(251.000000, 587.000000)">
            <g id="Group-Copy">
                <path d="M4.25,1.25 L4.25,27 C4.25,27.4832492 4.05412458,27.9207492 3.73743687,28.2374369 C3.42074916,28.5541246 2.98324916,28.75 2.5,28.75 C2.01675084,28.75 1.57925084,28.5541246 1.26256313,28.2374369 C0.945875422,27.9207492 0.75,27.4832492 0.75,27 L0.75,27 L0.75,1.25 L4.25,1.25 Z" id="Rectangle" stroke="#D8D8D8" stroke-width="0.5" fill="#B63232"></path>
                <rect id="Rectangle" stroke="#979797" fill="#D8D8D8" x="0.5" y="0.5" width="4" height="1" rx="0.5"></rect>
            </g>
            <rect id="Rectangle" fill="#D8D8D8" x="0.5" y="1" width="4" height="12"></rect>
        </g>
        <g id="Group-4-Copy" transform="translate(260.000000, 587.000000)">
            <g id="Group-Copy">
                <path d="M4.25,1.25 L4.25,27 C4.25,27.4832492 4.05412458,27.9207492 3.73743687,28.2374369 C3.42074916,28.5541246 2.98324916,28.75 2.5,28.75 C2.01675084,28.75 1.57925084,28.5541246 1.26256313,28.2374369 C0.945875422,27.9207492 0.75,27.4832492 0.75,27 L0.75,27 L0.75,1.25 L4.25,1.25 Z" id="Rectangle" stroke="#D8D8D8" stroke-width="0.5" fill="#B63232"></path>
                <rect id="Rectangle" stroke="#979797" fill="#D8D8D8" x="0.5" y="0.5" width="4" height="1" rx="0.5"></rect>
            </g>
            <rect id="Rectangle" fill="#D8D8D8" x="0.5" y="1" width="4" height="8"></rect>
        </g>
        <g id="Group-Copy-3" transform="translate(269.000000, 587.000000)" fill="#D8D8D8">
            <path d="M0.5,1 L4.5,1 L4.5,27 C4.5,28.1045695 3.6045695,29 2.5,29 C1.3954305,29 0.5,28.1045695 0.5,27 L0.5,1 L0.5,1 Z" id="Rectangle"></path>
            <rect id="Rectangle" stroke="#979797" x="0.5" y="0.5" width="4" height="1" rx="0.5"></rect>
        </g>
        <g id="Group-Copy-4" transform="translate(278.000000, 587.000000)" fill="#D8D8D8">
            <path d="M0.5,1 L4.5,1 L4.5,27 C4.5,28.1045695 3.6045695,29 2.5,29 C1.3954305,29 0.5,28.1045695 0.5,27 L0.5,1 L0.5,1 Z" id="Rectangle"></path>
            <rect id="Rectangle" stroke="#979797" x="0.5" y="0.5" width="4" height="1" rx="0.5"></rect>
        </g>
        <path d="" id="Combined-Shape" stroke="#979797" fill="#D8D8D8"></path>
        <rect id="Rectangle" fill="#D8D8D8" x="317" y="535" width="5" height="31"></rect>
        <path d="M972.641881,582.468397 C973.258761,582.629537 973.424751,582.777164 973.50129,582.945246 C973.557874,583.069506 973.551345,583.200384 973.491508,583.313848 L973.491508,583.313848 L945.848634,634.888243 C945.79561,634.987173 945.714093,635.061143 945.619512,635.105136 C945.575599,635.125561 945.528558,635.13967 945.479766,635.14662 C945.465081,635.193344 945.443656,635.237795 945.416184,635.278424 C945.32602,635.41177 945.173381,635.5 945,635.5 L945,635.5 L886,635.5 C885.861929,635.5 885.736929,635.444036 885.646447,635.353553 C885.555964,635.263071 885.5,635.138071 885.5,635 C885.5,634.861929 885.555964,634.736929 885.646447,634.646447 C885.736929,634.555964 885.861929,634.5 886,634.5 L886,634.5 L944.588296,634.5 L972.347372,582.710348 C972.412292,582.589225 972.520008,582.505656 972.641881,582.468397 Z" id="Combined-Shape" stroke="#979797" fill="#D8D8D8"></path>
        <path d="M1211.66141,582.474912 C1212.27069,582.632862 1212.43147,582.778457 1212.50503,582.94433 C1212.56007,583.068442 1212.55296,583.199365 1212.49131,583.315701 L1212.49131,583.315701 L1185.16443,634.87986 C1185.07818,635.042596 1184.91485,635.138038 1184.74332,635.145461 C1184.65689,635.149201 1184.5706,635.1305 1184.49348,635.091265 C1184.47713,635.177227 1184.43856,635.256633 1184.38322,635.322042 C1184.29136,635.430619 1184.1538,635.5 1184,635.5 L1184,635.5 L1126,635.5 C1125.86193,635.5 1125.73693,635.444036 1125.64645,635.353553 C1125.55596,635.263071 1125.5,635.138071 1125.5,635 C1125.5,634.861929 1125.55596,634.736929 1125.64645,634.646447 C1125.73693,634.555964 1125.86193,634.5 1126,634.5 L1126,634.5 L1183.92289,634.5 L1211.36646,582.718731 C1211.43111,582.596733 1211.53909,582.512491 1211.66141,582.474912 Z" id="Combined-Shape-Copy" stroke="#979797" fill="#D8D8D8" transform="translate(1169.000000, 609.000000) scale(-1, 1) translate(-1169.000000, -609.000000) "></path>
        <rect id="Rectangle" fill="#D8D8D8" x="242" y="636" width="165" height="24"></rect>
        <rect id="Rectangle-Copy-2" fill="#D8D8D8" x="242" y="692" width="165" height="24"></rect>
        <rect id="Rectangle-Copy-4" fill="#D8D8D8" x="245" y="747" width="165" height="24"></rect>
        <rect id="Rectangle" fill="#D8D8D8" x="1845" y="645" width="133" height="135"></rect>
        <polygon id="Rectangle" fill="#9E9B9B" transform="translate(2068.500000, 634.000000) scale(-1, 1) translate(-2068.500000, -634.000000) " points="1978 488 2019.79299 590.998621 2159 644.999015 2159 780 1978 712.499508"></polygon>
        <polygon id="Rectangle" fill="#9E9B9B" transform="translate(2116.500000, 658.500000) scale(-1, 1) translate(-2116.500000, -658.500000) " points="2116.5 591 2116.5 628.176963 2116.5 726"></polygon>
        <polygon id="Rectangle" fill="#BCB9B9" transform="translate(1981.000000, 618.500000) scale(1, -1) translate(-1981.000000, -618.500000) " points="1845 591 1977.90909 591 2117 646 1984.09091 646"></polygon>
        <polygon id="Rectangle" fill="#D8D8D8" transform="translate(2071.500000, 539.500000) scale(1, -1) translate(-2071.500000, -539.500000) " points="2026.31083 591 2159 591 2116.68917 488 1984 488"></polygon>
        <path d="M1883.97035,650.728529 C1887.09367,633.626168 1896.25385,623.383325 1911.4509,620 L1950,620 C1925.21623,635.83018 1911.56835,646.073023 1909.05634,650.728529 C1906.54433,655.384034 1901.84641,690.807858 1894.96257,757 L1885.74008,757 C1881.43694,703.254713 1880.84702,667.830889 1883.97035,650.728529 Z" id="Rectangle-Copy-11" fill="#424242"></path>
        <path d="M1905.63872,648.272769 C1908.7479,631.997628 1919.98094,624.055426 1939.33784,624.446164 C1953.36425,611.275415 1961.31341,606.527565 1963.18532,610.202612 C1965.05723,613.87766 1965.99546,619.721714 1966,627.734774 C1965.17786,634.134039 1963.46549,638.18262 1960.86292,639.880518 C1952.98774,645.018208 1938.0339,645.310765 1936.36204,648.272769 C1933.86141,652.703095 1929.26095,689.278838 1922.56064,758 L1913.83159,758 C1905.2605,701.123655 1902.52955,664.547911 1905.63872,648.272769 Z" id="Rectangle-Copy-10" fill="#424242"></path>
        <rect id="Rectangle" fill="#EBDAB9" x="1926" y="499" width="18" height="19"></rect>
        <path d="M1905.70899,513.9932 C1915.35718,510.466383 1924.99094,512.025897 1934.50652,512.025897 C1944.02209,512.025897 1948.52366,511 1953.83006,511 C1959.13647,511 1973.00181,516.461696 1975.81706,546.098887 C1976.08789,548.950063 1976.15387,602.075062 1975.33161,602.666303 C1974.2734,603.427206 1970.74452,603.247396 1969.05338,603.247396 C1967.38128,603.247396 1964.53141,568.072242 1962.49915,550.395383 C1961.18061,538.926639 1959.96391,533.605636 1958.84906,534.432376 C1960.03766,548.461659 1960.83894,559.317534 1961.2529,567 C1962.04989,581.790763 1963.39358,598.113713 1965.28398,615.96885 C1950.56563,621.166311 1939.50724,623.482281 1932.10879,622.916758 C1928.26388,622.62286 1923.24846,621.827886 1917.94641,621.602896 C1914.67958,621.46427 1909.30432,621.46427 1901.82062,621.602896 C1905.18426,597.20669 1907.10607,579.914534 1907.58605,569.726428 C1908.06604,559.538322 1907.44035,549.318992 1905.70899,539.068437 C1901.40403,583.427727 1898.77239,606.963331 1897.81407,609.675247 C1896.37658,613.743123 1892.21617,614.717174 1890.58346,609.675247 C1889.21578,605.451781 1890.68142,546.8902 1890.68142,539.068437 C1890.68142,526.651151 1896.06079,517.520018 1905.70899,513.9932 Z" id="Rectangle" fill="#53C7C4"></path>
        <ellipse id="Oval" fill="#EBDAB9" cx="1934.5" cy="479.5" rx="21.5" ry="23.5"></ellipse>
        <path d="M1953.73637,472.801401 C1957.25696,475.434857 1951.32161,470.530023 1955.65316,469.367679 C1958.54867,468.590686 1957.37036,464.286902 1958.59129,461.356082 C1961.63868,454.040896 1947.03914,451 1934.92841,451 C1922.81768,451 1913,466.282936 1913,473.477184 C1913,479.794316 1914.3398,464.340428 1929.04487,465.502772 C1943.74995,466.665116 1950.21578,470.167944 1953.73637,472.801401 Z" id="Oval" fill="#876F30"></path>
        <path d="M452.756863,548.473397 C452.756863,552.799011 451.944701,559.8144 474.319847,561.156876 C489.236611,562.051859 504.554681,561.675724 520.274059,560.028471 C520.281638,561.844639 520.43747,563.102632 520.741555,563.802451 C521.04564,564.50227 521.798455,565.335431 523,566.301934 C492.506442,573.478548 469.522501,575.637299 454.048177,572.778187 C430.836692,568.489518 430,554.672438 430,549.498059 C430,544.32368 432.076302,539 439.962874,539 C447.849446,539 452.756863,544.147782 452.756863,548.473397 Z" id="Rectangle" fill="#F0F0F0" transform="translate(476.500000, 556.500000) scale(-1, 1) translate(-476.500000, -556.500000) "></path>
        <ellipse id="Oval" fill="#66A1F2" transform="translate(426.762154, 562.000000) scale(-1, 1) rotate(80.000000) translate(-426.762154, -562.000000) " cx="426.762154" cy="562" rx="5" ry="7"></ellipse>
        <polygon id="Rectangle" fill="#3F6E93" transform="translate(501.000000, 734.500000) scale(-1, 1) translate(-501.000000, -734.500000) " points="487 699 515 699 506.87716 770 494.817897 770"></polygon>
        <polygon id="Rectangle-Copy-12" fill="#3F6E93" transform="translate(475.000000, 733.500000) scale(-1, 1) translate(-475.000000, -733.500000) " points="461 699 489 699 483.989967 768 471.91392 768"></polygon>
        <path d="M509.406147,506 C521.332103,506 531,492.344685 531,475.5 C531,458.655315 521.332103,445 509.406147,445 C497.480191,445 483,455.984327 483,472.829012 C483,479.986768 484.46361,491.314059 487.386407,496.517043 C491.341965,503.558488 502.547848,506 509.406147,506 Z" id="Oval" fill="#EBDAB9" transform="translate(507.000000, 475.500000) scale(-1, 1) translate(-507.000000, -475.500000) "></path>
        <rect id="Rectangle" fill="#EBDAB9" transform="translate(506.000000, 508.000000) scale(-1, 1) translate(-506.000000, -508.000000) " x="499" y="501" width="14" height="14"></rect>
        <path d="M463.257263,526.387769 C474.155146,495.21201 498.480168,506.088551 513.714311,527.807867 C518.195825,534.197162 520.027917,545.28707 520.027917,556.359194 C520.027917,567.431318 523.835824,598.780754 526.14228,616.042935 C532.424638,663.061921 539.279272,690.625626 536.268318,703.978105 C529.40268,734.424696 513.601493,696.531711 494.255744,703.978105 C474.909994,711.4245 464.411113,711.4245 455.752618,661.819971 C452.610256,643.817378 460.315921,610.868848 460.4451,592.900113 C460.671862,561.357613 456.314465,546.249148 463.257263,526.387769 Z" id="Rectangle" fill="#FBFBFB" transform="translate(496.000000, 611.500000) scale(-1, 1) translate(-496.000000, -611.500000) "></path>
        <path d="M448.812632,765 C450.268093,765 452.552945,766.252286 454.965826,766.252286 C457.518771,766.252286 460.196205,765 461.478595,765 C462.830517,765 462.461577,768.326091 464.35973,769.566295 C466.506808,770.96914 470.621922,770.620702 474.812359,770.620702 C480.508942,770.620702 482.944204,782 479.223589,782 C475.502975,782 451.163503,782 448.812632,782 C446.461762,782 443.879365,765 448.812632,765 Z" id="Rectangle" fill="#646464" transform="translate(463.500000, 773.500000) scale(-1, 1) translate(-463.500000, -773.500000) "></path>
        <path d="M477.812632,767 C479.268093,767 481.552945,768.252286 483.965826,768.252286 C486.518771,768.252286 489.196205,767 490.478595,767 C491.830517,767 491.461577,770.326091 493.35973,771.566295 C495.506808,772.96914 499.621922,772.620702 503.812359,772.620702 C509.508942,772.620702 511.944204,784 508.223589,784 C504.502975,784 480.163503,784 477.812632,784 C475.461762,784 472.879365,767 477.812632,767 Z" id="Rectangle-Copy-13" fill="#646464" transform="translate(492.500000, 775.500000) scale(-1, 1) translate(-492.500000, -775.500000) "></path>
        <path d="M441.673635,563.500521 C441.673635,567.838521 440.864444,574.873997 463.157758,576.220317 C478.019967,577.117863 493.388805,570.53123 509.26427,556.460418 L516,562.740791 C483.430856,588.83031 459.43742,600.44142 444.01969,597.574121 C420.893095,593.273173 419,569.717313 419,564.528118 C419,559.338923 421.068709,554 428.926438,554 C436.784166,554 441.673635,559.162521 441.673635,563.500521 Z" id="Rectangle" fill="#F0F0F0" transform="translate(467.500000, 576.000000) scale(-1, 1) translate(-467.500000, -576.000000) "></path>
        <ellipse id="Oval" fill="#66A1F2" transform="translate(418.762154, 556.500000) scale(-1, 1) rotate(49.000000) translate(-418.762154, -556.500000) " cx="418.762154" cy="556.5" rx="7" ry="9.5"></ellipse>
        <path d="M484.908268,630.014069 C488.351732,628.762963 491.410891,628.278382 494.085746,628.560327 C498.098029,628.983244 497.524075,631.427579 501.93358,631.808633 C504.87325,632.062669 507.864813,631.464481 510.908268,630.014069 L510.908268,649.014069 C510.908268,656.193771 505.08797,662.014069 497.908268,662.014069 C490.728566,662.014069 484.908268,656.193771 484.908268,649.014069 L484.908268,630.014069 L484.908268,630.014069 Z" id="Rectangle" fill="#F0F0F0" transform="translate(497.908268, 645.248309) scale(-1, 1) rotate(-6.000000) translate(-497.908268, -645.248309) "></path>
        <path d="M1885.74008,757 L1894.96257,757 C1896.61629,763.607214 1897.08596,767.863331 1896.37158,769.768352 C1895.3,772.625883 1893.37158,773 1890.37158,773 C1887.37158,773 1885.11474,771.857143 1884.37158,768.428571 C1883.87614,766.142857 1884.33231,762.333333 1885.74008,757 Z" id="Rectangle" fill="#646464"></path>
        <path d="M1913.56196,757 L1922.78445,757 C1924.43817,763.607214 1924.90784,767.863331 1924.19346,769.768352 C1923.12188,772.625883 1921.19346,773 1918.19346,773 C1915.19346,773 1912.93661,771.857143 1912.19346,768.428571 C1911.69802,766.142857 1912.15419,762.333333 1913.56196,757 Z" id="Rectangle-Copy-8" fill="#646464"></path>
        <rect id="Rectangle" fill="#D8D8D8" x="842" y="644" width="2" height="140"></rect>
        <rect id="Rectangle-Copy-6" fill="#D8D8D8" x="1212" y="644" width="2" height="140"></rect>
        <rect id="Rectangle" fill="#D8D8D8" x="842" y="644" width="372" height="2"></rect>
        <polygon id="Rectangle" fill="#D8D8D8" transform="translate(1232.500000, 637.500000) scale(-1, 1) translate(-1232.500000, -637.500000) " points="1214 629 1251 643.733333 1251 646 1214 631.278245"></polygon>
        <path d="M1269.51914,651.415784 C1270.84684,650.203392 1272.61742,649.595101 1274.4099,649.735543 L1274.4099,649.735543 L1309.27339,652.467125 C1310.18408,652.538479 1310.99074,652.954063 1311.56971,653.580181 C1312.14869,654.206298 1312.5,655.042948 1312.5,655.956432 L1312.5,655.956432 L1312.5,691.5 L1267.74719,691.5 L1263.06757,661.236839 C1262.73497,659.085917 1263.50098,656.911276 1265.10819,655.443644 L1265.10819,655.443644 Z" id="Rectangle" stroke="#3F3F3F"></path>
        <g id="Group-3" transform="translate(1073.000000, 615.000000)">
            <path d="M0,1 C2.5,1.66666667 5,2 7.5,2 C10,2 12.5,1.66666667 15,1 L15,19.0785844 C14.9999568,19.5258747 14.7029122,19.918761 14.272558,20.0406789 C12.0150387,20.6802263 9.75751935,21 7.5,21 C5.24246896,21 2.98493792,20.680223 0.727406878,20.0406689 C0.297050247,19.9187269 1.64390483e-15,19.5258326 0,19.0785333 L0,1 L0,1 Z" id="Rectangle" fill="#D8D8D8"></path>
            <ellipse id="Oval" stroke="#D8D8D8" stroke-width="0.25" fill="#686868" cx="7.5" cy="1" rx="7.375" ry="1"></ellipse>
            <path d="M15,7 L18,7 C18.5522847,7 19,7.44771525 19,8 L19,14 C19,14.5522847 18.5522847,15 18,15 L15,15 L15,14 L17,14 C17.5522847,14 18,13.5522847 18,13 L18,13 L18,9 C18,8.44771525 17.5522847,8 17,8 L17,8 L15,8 L15,7 Z" id="Combined-Shape" fill="#D8D8D8"></path>
        </g>
        <path d="M1212,620.023306 C1232.03367,622.355931 1249.33817,618.150284 1263.91352,607.406365 C1278.48886,596.662446 1288.46921,585.091345 1293.85455,572.693061 C1294.94539,569.564354 1297.1363,568 1300.42728,568 C1303.71825,568 1305.90916,569.564354 1307,572.693061 C1298.10959,594.255869 1286.48465,609.911022 1272.1252,619.658521 C1257.76575,629.406019 1239.19517,632.870361 1216.41348,630.051545 L1212,620.023306 Z" id="Rectangle" fill="#BE6666"></path>
        <path d="M1207.37135,632.891675 C1212.04067,632.26808 1215.43578,629.124763 1214.95455,625.870881 C1214.47331,622.616998 1210.29797,620.484729 1205.62865,621.108325 C1200.95933,621.73192 1197.56422,624.875237 1198.04545,628.129119 C1198.52669,631.383002 1202.70203,633.515271 1207.37135,632.891675 Z" id="Oval" fill="#EBDAB9"></path>
        <ellipse id="Oval" fill="#EBDAB9" transform="translate(1894.000000, 614.500000) rotate(8.000000) translate(-1894.000000, -614.500000) " cx="1894" cy="614.5" rx="5" ry="7"></ellipse>
        <ellipse id="Oval-Copy-9" fill="#EBDAB9" transform="translate(1972.000000, 606.000000) rotate(8.000000) translate(-1972.000000, -606.000000) " cx="1972" cy="606" rx="5" ry="7"></ellipse>
        <path d="M498.148287,503.894979 C503.340209,503.894979 510.641747,504.625875 514.234268,502.231323 C516.153713,500.95194 518,494.311833 518,491.963338 C518,485.219292 506.114196,488.895905 498.148287,488.895905 C490.182379,488.895905 483,477.373326 483,484.117372 C483,490.861418 490.182379,503.894979 498.148287,503.894979 Z" id="Oval" fill="#B1AFAF"></path>
        <path d="M504.483662,472.968495 C514.505497,468.999947 531,469.747565 531,462.024301 C531,454.301037 520.205169,445 507.494788,445 C494.784407,445 487.158544,450.430689 482.470098,459.251901 C477.781652,468.073114 480.919616,492 482.514439,492 C485.508184,492 481.4521,482.088765 504.483662,472.968495 Z" id="Oval" fill="#876F30" transform="translate(505.500000, 468.500000) scale(-1, 1) translate(-505.500000, -468.500000) "></path>
        <path d="M517.57175,493.091134 C518.841709,493.399004 520.435874,492.954415 522.354244,491.757364 C524.272613,490.560314 527.364218,487.060888 531.629058,481.259087" id="Line-5" stroke="#B1AFAF" stroke-linecap="round" transform="translate(524.600404, 487.222348) rotate(-8.000000) translate(-524.600404, -487.222348) "></path>
        <g id="Group-9" transform="translate(2607.000000, 251.000000)">
            <rect id="Rectangle" stroke="#484848" stroke-width="11" fill="#FFFFFF" x="5.5" y="27.5" width="423" height="262"></rect>
            <g id="DNA" transform="translate(217.500000, 158.500000) rotate(-37.000000) translate(-217.500000, -158.500000) translate(93.000000, 54.000000)">
                <g id="Group-6" transform="translate(69.899020, 92.621477)">
                    <rect id="Rectangle" fill="#F6EEA7" x="0" y="16.5853659" width="1.25714286" height="8.29268293"></rect>
                    <rect id="Rectangle" fill="#E37676" x="0" y="9.12195122" width="1.25714286" height="8.29268293"></rect>
                    <rect id="Rectangle" fill="#74AAEC" x="7.12380952" y="16.1707317" width="1.25714286" height="13.6829268"></rect>
                    <rect id="Rectangle" fill="#A7CCB7" x="7.12380952" y="4.14634146" width="1.25714286" height="13.6829268"></rect>
                    <rect id="Rectangle" fill="#A7CCB7" x="14.247619" y="16.1707317" width="1.25714286" height="17.4146341"></rect>
                    <rect id="Rectangle" fill="#74AAEC" x="14.247619" y="0.414634146" width="1.25714286" height="17.4146341"></rect>
                    <rect id="Rectangle" fill="#E37676" x="21.3714286" y="16.1707317" width="1.25714286" height="17.4146341"></rect>
                    <rect id="Rectangle" fill="#F6EEA7" x="21.3714286" y="0.414634146" width="1.25714286" height="17.4146341"></rect>
                    <rect id="Rectangle" fill="#F6EEA7" x="28.4952381" y="16.1707317" width="1.25714286" height="17.8292683"></rect>
                    <rect id="Rectangle" fill="#E37676" x="28.4952381" y="0" width="1.25714286" height="17.8292683"></rect>
                    <rect id="Rectangle" fill="#74AAEC" x="35.6190476" y="16.1707317" width="1.25714286" height="16.1707317"></rect>
                    <rect id="Rectangle" fill="#A7CCB7" x="35.6190476" y="1.65853659" width="1.25714286" height="16.1707317"></rect>
                    <rect id="Rectangle" fill="#E37676" x="42.7428571" y="14.9268293" width="1.25714286" height="12.0243902"></rect>
                    <rect id="Rectangle" fill="#F6EEA7" x="42.7428571" y="3.73170732" width="1.25714286" height="12.0243902"></rect>
                </g>
                <g id="Group-6" transform="translate(162.303834, 107.581341) scale(-1, 1) translate(-162.303834, -107.581341) translate(140.303834, 90.581341)">
                    <rect id="Rectangle" fill="#F6EEA7" x="0" y="16.5853659" width="1.25714286" height="8.29268293"></rect>
                    <rect id="Rectangle" fill="#E37676" x="0" y="9.12195122" width="1.25714286" height="8.29268293"></rect>
                    <rect id="Rectangle" fill="#74AAEC" x="7.12380952" y="16.1707317" width="1.25714286" height="13.6829268"></rect>
                    <rect id="Rectangle" fill="#A7CCB7" x="7.12380952" y="4.14634146" width="1.25714286" height="13.6829268"></rect>
                    <rect id="Rectangle" fill="#A7CCB7" x="14.247619" y="16.1707317" width="1.25714286" height="17.4146341"></rect>
                    <rect id="Rectangle" fill="#74AAEC" x="14.247619" y="0.414634146" width="1.25714286" height="17.4146341"></rect>
                    <rect id="Rectangle" fill="#E37676" x="21.3714286" y="16.1707317" width="1.25714286" height="17.4146341"></rect>
                    <rect id="Rectangle" fill="#F6EEA7" x="21.3714286" y="0.414634146" width="1.25714286" height="17.4146341"></rect>
                    <rect id="Rectangle" fill="#F6EEA7" x="28.4952381" y="16.1707317" width="1.25714286" height="17.8292683"></rect>
                    <rect id="Rectangle" fill="#E37676" x="28.4952381" y="0" width="1.25714286" height="17.8292683"></rect>
                    <rect id="Rectangle" fill="#74AAEC" x="35.6190476" y="16.1707317" width="1.25714286" height="16.1707317"></rect>
                    <rect id="Rectangle" fill="#A7CCB7" x="35.6190476" y="1.65853659" width="1.25714286" height="16.1707317"></rect>
                    <rect id="Rectangle" fill="#E37676" x="42.7428571" y="14.9268293" width="1.25714286" height="12.0243902"></rect>
                    <rect id="Rectangle" fill="#F6EEA7" x="42.7428571" y="3.73170732" width="1.25714286" height="12.0243902"></rect>
                </g>
                <g id="Group-7" transform="translate(124.332237, 104.164374) rotate(24.000000) translate(-124.332237, -104.164374) translate(18.332237, 37.664374)" fill="#D3CCC6">
                    <ellipse id="Oval" cx="194.558923" cy="4.16833667" rx="4.17508418" ry="4.16833667"></ellipse>
                    <ellipse id="Oval-Copy-10" cx="190.383838" cy="7.50300601" rx="4.17508418" ry="4.16833667"></ellipse>
                    <ellipse id="Oval-Copy-11" cx="186.208754" cy="12.50501" rx="4.17508418" ry="4.16833667"></ellipse>
                    <ellipse id="Oval-Copy-12" cx="182.868687" cy="17.9238477" rx="4.17508418" ry="4.16833667"></ellipse>
                    <ellipse id="Oval-Copy-13" cx="179.946128" cy="25.01002" rx="4.17508418" ry="4.16833667"></ellipse>
                    <ellipse id="Oval-Copy-14" cx="177.023569" cy="32.9298597" rx="4.17508418" ry="4.16833667"></ellipse>
                    <ellipse id="Oval-Copy-15" cx="174.10101" cy="40.8496994" rx="4.17508418" ry="4.16833667"></ellipse>
                    <ellipse id="Oval-Copy-16" cx="170.760943" cy="48.7695391" rx="4.17508418" ry="4.16833667"></ellipse>
                    <ellipse id="Oval-Copy-22" cx="141.952862" cy="73.7795591" rx="3.34006734" ry="3.33466934"></ellipse>
                    <ellipse id="Oval-Copy-23" cx="136.107744" cy="73.7795591" rx="3.34006734" ry="3.33466934"></ellipse>
                    <ellipse id="Oval-Copy-24" cx="129.845118" cy="72.9458918" rx="3.34006734" ry="3.33466934"></ellipse>
                    <ellipse id="Oval-Copy-25" cx="123.164983" cy="70.8617234" rx="3.34006734" ry="3.33466934"></ellipse>
                    <ellipse id="Oval-Copy-26" cx="116.484848" cy="69.1943888" rx="3.34006734" ry="3.33466934"></ellipse>
                    <ellipse id="Oval-Copy-27" cx="102.289562" cy="65.4428858" rx="3.34006734" ry="3.33466934"></ellipse>
                    <ellipse id="Oval-Copy-27" cx="95.6094276" cy="64.1923848" rx="3.34006734" ry="3.33466934"></ellipse>
                    <ellipse id="Oval-Copy-28" cx="88.5117845" cy="63.7755511" rx="3.34006734" ry="3.33466934"></ellipse>
                    <ellipse id="Oval-Copy-28" cx="81.8316498" cy="64.1923848" rx="3.34006734" ry="3.33466934"></ellipse>
                    <ellipse id="Oval-Copy-28" cx="76.2957539" cy="64.9342612" rx="3.34006734" ry="3.33466934"></ellipse>
                    <ellipse id="Oval-Copy-29" cx="68.5435715" cy="68.6998045" rx="3.34006734" ry="3.33466934"></ellipse>
                    <ellipse id="Oval-Copy-41" cx="72.6044074" cy="66.4765427" rx="3.34006734" ry="3.33466934"></ellipse>
                    <ellipse id="Oval-Copy-30" cx="61.9356278" cy="73.2072242" rx="3.75757576" ry="3.75150301"></ellipse>
                    <ellipse id="Oval-Copy-30" cx="64.6472992" cy="71.089299" rx="3.75757576" ry="3.75150301"></ellipse>
                    <ellipse id="Oval-Copy-31" cx="58.03367" cy="77.9478958" rx="3.75757576" ry="3.75150301"></ellipse>
                    <ellipse id="Oval-Copy-31" cx="55.4500336" cy="81.377752" rx="3.75757576" ry="3.75150301"></ellipse>
                    <ellipse id="Oval-Copy-32" cx="53.4410774" cy="84.2004008" rx="3.75757576" ry="3.75150301"></ellipse>
                    <ellipse id="Oval-Copy-32" cx="51.4086699" cy="87.841512" rx="3.75757576" ry="3.75150301"></ellipse>
                    <ellipse id="Oval-Copy-33" cx="50.1010101" cy="91.2865731" rx="3.75757576" ry="3.75150301"></ellipse>
                    <ellipse id="Oval-Copy-33" cx="49.0430254" cy="94.0382633" rx="3.75757576" ry="3.75150301"></ellipse>
                    <ellipse id="Oval-Copy-34" cx="46.3434343" cy="98.7895792" rx="3.75757576" ry="3.75150301"></ellipse>
                    <ellipse id="Oval-Copy-35" cx="43.8383838" cy="106.292585" rx="3.75757576" ry="3.75150301"></ellipse>
                    <ellipse id="Oval-Copy-36" cx="41.7508418" cy="112.961924" rx="3.75757576" ry="3.75150301"></ellipse>
                    <ellipse id="Oval-Copy-39" cx="33.4006734" cy="129.635271" rx="3.34006734" ry="3.33466934"></ellipse>
                    <ellipse id="Oval-Copy-39" cx="35.9057239" cy="127.134269" rx="3.34006734" ry="3.33466934"></ellipse>
                    <ellipse id="Oval-Copy-38" cx="37.993266" cy="123.382766" rx="3.34006734" ry="3.33466934"></ellipse>
                    <ellipse id="Oval-Copy-37" cx="39.6632997" cy="118.797595" rx="3.34006734" ry="3.33466934"></ellipse>
                    <ellipse id="Oval-Copy-21" cx="147.79798" cy="72.9458918" rx="3.75757576" ry="3.75150301"></ellipse>
                    <ellipse id="Oval-Copy-20" cx="153.225589" cy="70.8617234" rx="3.75757576" ry="3.75150301"></ellipse>
                    <ellipse id="Oval-Copy-19" cx="158.23569" cy="67.5270541" rx="4.17508418" ry="4.16833667"></ellipse>
                    <ellipse id="Oval-Copy-17" cx="162.410774" cy="62.5250501" rx="4.17508418" ry="4.16833667"></ellipse>
                    <ellipse id="Oval-Copy-18" cx="167.003367" cy="56.2725451" rx="4.17508418" ry="4.16833667"></ellipse>
                    <ellipse id="Oval" transform="translate(5.931786, 89.337215) scale(1, -1) rotate(-131.000000) translate(-5.931786, -89.337215) " cx="5.93178599" cy="89.3372149" rx="4.17124226" ry="4.17218133"></ellipse>
                    <ellipse id="Oval-Copy-10" transform="translate(11.191668, 88.379071) scale(1, -1) rotate(-131.000000) translate(-11.191668, -88.379071) " cx="11.1916685" cy="88.3790712" rx="4.17124226" ry="4.17218133"></ellipse>
                    <ellipse id="Oval-Copy-11" transform="translate(17.711941, 88.514797) scale(1, -1) rotate(-131.000000) translate(-17.711941, -88.514797) " cx="17.7119414" cy="88.5147975" rx="4.17124226" ry="4.17218133"></ellipse>
                    <ellipse id="Oval-Copy-12" transform="translate(23.999492, 89.553168) scale(1, -1) rotate(-131.000000) translate(-23.999492, -89.553168) " cx="23.9994916" cy="89.553168" rx="4.17124226" ry="4.17218133"></ellipse>
                    <ellipse id="Oval-Copy-13" transform="translate(31.273522, 91.999997) scale(1, -1) rotate(-131.000000) translate(-31.273522, -91.999997) " cx="31.273522" cy="91.9999968" rx="4.17124226" ry="4.17218133"></ellipse>
                    <ellipse id="Oval-Copy-14" transform="translate(39.177748, 94.993761) scale(1, -1) rotate(-131.000000) translate(-39.177748, -94.993761) " cx="39.1777476" cy="94.9937606" rx="4.17124226" ry="4.17218133"></ellipse>
                    <ellipse id="Oval-Copy-15" transform="translate(109.804714, 67.110220) scale(1, -1) rotate(-131.000000) translate(-109.804714, -67.110220) " cx="109.804714" cy="67.1102204" rx="4.17124226" ry="4.17218133"></ellipse>
                    <ellipse id="Oval-Copy-16" transform="translate(55.260109, 100.666700) scale(1, -1) rotate(-131.000000) translate(-55.260109, -100.666700) " cx="55.260109" cy="100.6667" rx="4.17124226" ry="4.17218133"></ellipse>
                    <ellipse id="Oval-Copy-16" transform="translate(51.910955, 100.330304) scale(1, -1) rotate(-131.000000) translate(-51.910955, -100.330304) " cx="51.9109547" cy="100.330304" rx="4.17124226" ry="4.17218133"></ellipse>
                    <ellipse id="Oval-Copy-22" transform="translate(93.065767, 95.368152) scale(1, -1) rotate(-131.000000) translate(-93.065767, -95.368152) " cx="93.0657667" cy="95.3681523" rx="3.3369938" ry="3.33774506"></ellipse>
                    <ellipse id="Oval-Copy-23" transform="translate(96.900509, 90.963915) scale(1, -1) rotate(-131.000000) translate(-96.900509, -90.963915) " cx="96.900509" cy="90.9639152" rx="3.3369938" ry="3.33774506"></ellipse>
                    <ellipse id="Oval-Copy-24" transform="translate(100.378966, 85.698155) scale(1, -1) rotate(-131.000000) translate(-100.378966, -85.698155) " cx="100.378966" cy="85.6981548" rx="3.3369938" ry="3.33774506"></ellipse>
                    <ellipse id="Oval-Copy-25" transform="translate(103.389663, 80.169090) scale(1, -1) rotate(-131.000000) translate(-103.389663, -80.169090) " cx="103.389663" cy="80.1690905" rx="3.3369938" ry="3.33774506"></ellipse>
                    <ellipse id="Oval-Copy-40" transform="translate(105.040658, 76.697521) scale(1, -1) rotate(-131.000000) translate(-105.040658, -76.697521) " cx="105.040658" cy="76.6975208" rx="3.3369938" ry="3.33774506"></ellipse>
                    <ellipse id="Oval-Copy-26" transform="translate(106.308213, 73.170120) scale(1, -1) rotate(-131.000000) translate(-106.308213, -73.170120) " cx="106.308213" cy="73.1701198" rx="3.3369938" ry="3.33774506"></ellipse>
                    <ellipse id="Oval-Copy-27" transform="translate(112.785280, 60.012908) scale(1, -1) rotate(-131.000000) translate(-112.785280, -60.012908) " cx="112.78528" cy="60.0129081" rx="3.3369938" ry="3.33774506"></ellipse>
                    <ellipse id="Oval-Copy-27" transform="translate(116.222550, 54.159092) scale(1, -1) rotate(-131.000000) translate(-116.222550, -54.159092) " cx="116.22255" cy="54.1590918" rx="3.3369938" ry="3.33774506"></ellipse>
                    <ellipse id="Oval-Copy-28" transform="translate(120.563926, 48.537622) scale(1, -1) rotate(-131.000000) translate(-120.563926, -48.537622) " cx="120.563926" cy="48.5376221" rx="3.3369938" ry="3.33774506"></ellipse>
                    <ellipse id="Oval-Copy-28" transform="translate(125.261586, 43.777676) scale(1, -1) rotate(-131.000000) translate(-125.261586, -43.777676) " cx="125.261586" cy="43.7776758" rx="3.3369938" ry="3.33774506"></ellipse>
                    <ellipse id="Oval-Copy-28" transform="translate(130.589441, 39.564665) scale(1, -1) rotate(-131.000000) translate(-130.589441, -39.564665) " cx="130.589441" cy="39.5646645" rx="3.3369938" ry="3.33774506"></ellipse>
                    <ellipse id="Oval-Copy-29" transform="translate(136.629867, 37.074700) scale(1, -1) rotate(-131.000000) translate(-136.629867, -37.074700) " cx="136.629867" cy="37.0746999" rx="3.3369938" ry="3.33774506"></ellipse>
                    <ellipse id="Oval-Copy-30" transform="translate(143.615585, 35.405138) scale(1, -1) rotate(-131.000000) translate(-143.615585, -35.405138) " cx="143.615585" cy="35.4051377" rx="3.75411803" ry="3.75496319"></ellipse>
                    <ellipse id="Oval-Copy-31" transform="translate(151.272686, 34.870566) scale(1, -1) rotate(-131.000000) translate(-151.272686, -34.870566) " cx="151.272686" cy="34.8705664" rx="3.75411803" ry="3.75496319"></ellipse>
                    <ellipse id="Oval-Copy-32" transform="translate(159.012162, 35.512107) scale(1, -1) rotate(-131.000000) translate(-159.012162, -35.512107) " cx="159.012162" cy="35.5121068" rx="3.75411803" ry="3.75496319"></ellipse>
                    <ellipse id="Oval-Copy-33" transform="translate(166.560103, 37.644347) scale(1, -1) rotate(-131.000000) translate(-166.560103, -37.644347) " cx="166.560103" cy="37.6443472" rx="3.75411803" ry="3.75496319"></ellipse>
                    <ellipse id="Oval-Copy-35" transform="translate(182.012269, 42.770351) scale(1, -1) rotate(-131.000000) translate(-182.012269, -42.770351) " cx="182.012269" cy="42.7703515" rx="3.75411803" ry="3.75496319"></ellipse>
                    <ellipse id="Oval-Copy-36" transform="translate(188.423381, 45.572890) scale(1, -1) rotate(-131.000000) translate(-188.423381, -45.572890) " cx="188.423381" cy="45.5728895" rx="3.75411803" ry="3.75496319"></ellipse>
                    <ellipse id="Oval-Copy-39" transform="translate(206.505489, 50.219822) scale(1, -1) rotate(-131.000000) translate(-206.505489, -50.219822) " cx="206.505489" cy="50.2198219" rx="3.3369938" ry="3.33774506"></ellipse>
                    <ellipse id="Oval-Copy-39" transform="translate(202.971442, 50.466547) scale(1, -1) rotate(-131.000000) translate(-202.971442, -50.466547) " cx="202.971442" cy="50.4665472" rx="3.3369938" ry="3.33774506"></ellipse>
                    <ellipse id="Oval-Copy-38" transform="translate(198.766013, 49.578282) scale(1, -1) rotate(-131.000000) translate(-198.766013, -49.578282) " cx="198.766013" cy="49.5782815" rx="3.3369938" ry="3.33774506"></ellipse>
                    <ellipse id="Oval-Copy-37" transform="translate(194.204299, 47.828493) scale(1, -1) rotate(-131.000000) translate(-194.204299, -47.828493) " cx="194.204299" cy="47.8284926" rx="3.3369938" ry="3.33774506"></ellipse>
                    <ellipse id="Oval-Copy-21" transform="translate(88.600829, 99.225454) scale(1, -1) rotate(-131.000000) translate(-88.600829, -99.225454) " cx="88.6008291" cy="99.2254544" rx="3.75411803" ry="3.75496319"></ellipse>
                    <ellipse id="Oval-Copy-20" transform="translate(83.464509, 101.947766) scale(1, -1) rotate(-131.000000) translate(-83.464509, -101.947766) " cx="83.4645089" cy="101.947766" rx="3.75411803" ry="3.75496319"></ellipse>
                    <ellipse id="Oval-Copy-19" transform="translate(77.656806, 103.535086) scale(1, -1) rotate(-131.000000) translate(-77.656806, -103.535086) " cx="77.6568061" cy="103.535086" rx="4.17124226" ry="4.17218133"></ellipse>
                    <ellipse id="Oval-Copy-17" transform="translate(71.136533, 103.399360) scale(1, -1) rotate(-131.000000) translate(-71.136533, -103.399360) " cx="71.1365332" cy="103.39936" rx="4.17124226" ry="4.17218133"></ellipse>
                    <ellipse id="Oval-Copy-18" transform="translate(63.397057, 102.757819) scale(1, -1) rotate(-131.000000) translate(-63.397057, -102.757819) " cx="63.3970573" cy="102.757819" rx="4.17124226" ry="4.17218133"></ellipse>
                </g>
            </g>
            <g id="Group-8" transform="translate(85.000000, 83.000000)" stroke="#979797">
                <circle id="Oval" cx="109.151846" cy="77.3543392" r="6"></circle>
                <polyline id="Line" stroke-linecap="square" points="104.846215 73.0283268 44.6007926 1.29170495e-14 -1.13686838e-13 0"></polyline>
            </g>
            <g id="Group-8" transform="translate(306.000000, 180.000000) scale(-1, -1) translate(-306.000000, -180.000000) translate(248.000000, 138.000000)" stroke="#979797">
                <circle id="Oval" cx="109.151846" cy="77.3543392" r="6"></circle>
                <polyline id="Line" stroke-linecap="square" points="104.846215 73.0283268 44.6007926 1.29170495e-14 -1.13686838e-13 0"></polyline>
            </g>
            <rect id="Rectangle" fill="#484848" x="191" y="286" width="53" height="194"></rect>
            <rect id="Rectangle" fill="#484848" x="142" y="479" width="150" height="45"></rect>
        </g>
        <polygon id="Path" fill="#525252" points="2471.01929 618.5 2531 619 2531 766.144278 2519.58994 766.144278 2501.95852 646.703494 2496 646.703494 2473.63372 766.144278 2461 766.144278"></polygon>
        <path d="M2471.01929,618.5 C2469.91738,601.706371 2469.36643,586.336206 2469.36643,572.389505 C2469.36643,558.442805 2469.91095,543.31297 2471,527 C2466.68056,534.493189 2463.19039,542.983007 2460.52948,552.469454 C2457.86857,561.955901 2456.24304,576.298266 2455.65288,595.496548 L2446.06278,595.496548 C2443.99177,581.862373 2443.99177,567.520009 2446.06278,552.469454 C2449.1693,529.893622 2446.06278,517.905685 2461,509.351498 C2467.55877,505.59545 2480.61768,505.455394 2496,505.281925 C2515.65004,505.060328 2533.81162,508.271132 2537.80109,513.069339 C2542.93731,519.246763 2547.84655,535.549554 2548.23332,542.587552 C2548.49116,547.279551 2555.87307,546.475309 2570.37904,540.174827 L2574.01698,548.883381 C2550.43342,557.413462 2537.69479,557.413462 2535.80109,548.883381 C2533.9074,540.3533 2531.42136,533.05884 2528.343,527 C2530.781,553.240692 2532,570.794707 2532,579.662044 C2532,588.529381 2531.66667,601.642033 2531,619 L2471.01929,618.5 Z" id="Path-2" fill="#9AC6A1"></path>
        <path d="M1889,754 L1891,754 C1892.10457,754 1893,754.895431 1893,756 L1893,758 L1893,758 L1887,758 L1887,756 C1887,754.895431 1887.89543,754 1889,754 Z" id="Rectangle" fill="#646464"></path>
        <path d="M1917,754 L1919,754 C1920.10457,754 1921,754.895431 1921,756 L1921,758 L1921,758 L1915,758 L1915,756 C1915,754.895431 1915.89543,754 1917,754 Z" id="Rectangle-Copy-9" fill="#646464"></path>
        <ellipse id="Oval" fill="#D8D8D8" cx="2467.5" cy="770" rx="8.5" ry="6"></ellipse>
        <ellipse id="Oval-Copy-42" fill="#D8D8D8" cx="2525.5" cy="769" rx="8.5" ry="6"></ellipse>
        <ellipse id="Oval" fill="#C4AF87" transform="translate(2575.500000, 543.500000) rotate(-21.000000) translate(-2575.500000, -543.500000) " cx="2575.5" cy="543.5" rx="7.5" ry="5.5"></ellipse>
        <rect id="Rectangle" fill="#D8D8D8" transform="translate(2627.000000, 470.000000) rotate(35.000000) translate(-2627.000000, -470.000000) " x="2625" y="377" width="4" height="186"></rect>
        <rect id="Rectangle" fill="#C4AF87" x="2571" y="544" width="7" height="4" rx="2"></rect>
        <ellipse id="Oval" fill="#C4AF87" cx="2451" cy="600" rx="6" ry="8"></ellipse>
    </g>
</svg>